<svg width="76" height="77" viewBox="0 0 76 77" fill="none" xmlns="http://www.w3.org/2000/svg">
<g clip-path="url(#clip0_13_1736)">
<path fill-rule="evenodd" clip-rule="evenodd" d="M57.0001 13.4768C58.6241 13.4768 59.9625 14.6993 60.1454 16.2742L60.1667 16.6435V21.5978L60.5339 21.9193L61.4112 22.6522C61.5719 22.7821 61.7393 22.9151 61.9128 23.0501C63.6004 24.3624 65.6378 25.6847 67.5014 26.306C69.1607 26.859 70.0572 28.6524 69.5043 30.3115C68.9511 31.9707 67.1578 32.8673 65.4988 32.3143C63.8993 31.7812 62.3534 30.9772 60.9737 30.1181L60.1667 29.5977V45.1435H69.6667C71.4157 45.1435 72.8334 46.5612 72.8334 48.3101C72.8334 49.9342 71.611 51.2726 70.0361 51.4555L69.6667 51.4768H60.1667V60.9768C60.1667 62.7258 58.749 64.1435 57.0001 64.1435C55.3761 64.1435 54.0376 62.9211 53.8547 61.3461L53.8334 60.9768V51.4768H22.1667V60.9768C22.1667 62.7258 20.749 64.1435 19.0001 64.1435C17.3761 64.1435 16.0376 62.9211 15.8547 61.3461L15.8334 60.9768V51.4768H6.33341C4.58453 51.4768 3.16675 50.0591 3.16675 48.3101C3.16675 46.6861 4.38922 45.3477 5.96412 45.1648L6.33341 45.1435H15.8334V29.5977C14.263 30.6448 12.4206 31.6746 10.5015 32.3143C8.8423 32.8673 7.04895 31.9707 6.49593 30.3115C5.94287 28.6524 6.83954 26.859 8.49869 26.306C10.3625 25.6847 12.3999 24.3624 14.0872 23.0501L14.589 22.6522L15.4663 21.9193L15.8334 21.5978V16.6435C15.8334 14.8946 17.2512 13.4768 19.0001 13.4768C20.624 13.4768 21.9625 14.6993 22.1454 16.2742L22.1667 16.6435V22.0962C22.2582 22.2318 22.3684 22.3881 22.4983 22.5612C23.0326 23.2737 23.8906 24.2589 25.1345 25.2541C27.5823 27.2123 31.6443 29.3101 38.0001 29.3101C44.3559 29.3101 48.4178 27.2123 50.8656 25.2541C52.1095 24.2589 52.9676 23.2737 53.5019 22.5612L53.8334 22.0962V16.6435C53.8334 14.8946 55.2511 13.4768 57.0001 13.4768ZM53.8334 30.9472C52.3726 31.9909 50.6237 32.9818 48.5589 33.782L47.5001 34.1656V45.1435H53.8334V30.9472ZM41.1667 35.495C40.1582 35.5915 39.103 35.6435 38.0001 35.6435C37.2648 35.6435 36.5507 35.6204 35.8576 35.5764L34.8334 35.495V45.1435H41.1667V35.495ZM22.1667 30.9472V45.1435H28.5001V34.1656L27.4413 33.782C25.7206 33.1151 24.2194 32.3159 22.9213 31.464L22.1667 30.9472Z" fill="#545454"/>
</g>
<defs>
<clipPath id="clip0_13_1736">
<rect width="76" height="76" fill="white" transform="translate(0 0.810059)"/>
</clipPath>
</defs>
</svg>
