<svg width="82" height="83" viewBox="0 0 82 83" fill="none" xmlns="http://www.w3.org/2000/svg">
<g clip-path="url(#clip0_13_1742)">
<path d="M18.6138 32.2986L20.8429 33.38L21.5837 28.3114L18.6138 27.46V32.2986Z" fill="#545454"/>
<path d="M6.42201 40.5251L7.7555 35.8833L3.73069 36.9912L0 45.5362L6.42201 40.5251Z" fill="#545454"/>
<path d="M65.6685 55.5696L69.1891 53.681L68.5676 53.5461L67.5039 53.3139L66.6901 53.2056L65.6685 55.5696Z" fill="#545454"/>
<path d="M68.2183 52.5928L70.1732 53.0196L72.995 47.2036L71.7212 47.0222L70.8742 46.9072L68.2183 52.5928Z" fill="#545454"/>
<path d="M6.15659 31.2835L4.15967 35.985L17.7578 32.241V27.3914L8.83243 28.789L6.15659 31.2835Z" fill="#545454"/>
<path d="M55.7635 19.3241L52.3203 23.8376L55.3212 34.771L56.8891 40.4875L60.4938 38.871L62.2032 38.1058L67.5659 24.0455L67.5483 23.9748L71.2922 18.2892L73.4152 17.1768L61.3518 16.4072L55.7635 19.3241Z" fill="#545454"/>
<path d="M59.6576 44.468L70.3632 45.9696L71.2544 46.0957L73.2071 46.3699V44.6118L62.5192 38.8997L60.801 39.6714L57.2671 41.2548L58.0101 42.2522L59.6576 44.468Z" fill="#545454"/>
<path d="M56.3275 41.675L56.2965 41.5688L54.043 41.9514L53.0965 48.0484L49.231 56.4363L51.9046 59.1741L52.2098 55.6336L58.9016 44.8882L57.0904 42.4556L56.469 41.6153L56.3275 41.675Z" fill="#545454"/>
<path d="M25.1131 25.7793L22.4616 28.2163L20.9424 38.6344H21.0507L36.4534 39.0015L39.2862 35.9253L36.3229 28.0858L34.4565 23.1521L25.1131 25.7793Z" fill="#545454"/>
<path d="M51.5174 24.1539L35.354 23.1035L37.2846 28.2097L40.1152 35.6888L53.7133 41.1378L55.4803 40.8392L56.0685 40.7397L54.5028 35.0364L51.5174 24.1539Z" fill="#545454"/>
<path d="M18.5051 63.1282L20.3715 51.3435L18.8191 53.639L16.9305 56.4364L14.4736 61.2839L18.5051 63.1282Z" fill="#545454"/>
<path d="M79.2643 26.175L78.5234 28.2074L80.286 28.9504L79.2643 26.175Z" fill="#545454"/>
<path d="M41.8758 66.6201L40.3765 61.5758L37.1367 59.6077L37.8156 67.2128L41.8758 66.6201Z" fill="#545454"/>
<path d="M50.4826 63.1193L51.7387 60.2333L48.8816 57.3076L47.4375 61.1621L50.4826 63.1193Z" fill="#545454"/>
<path d="M23.9678 50.6027L36.1351 57.9955L39.5739 60.0876L32.0019 46.5204L28.3044 51.5979L25.0868 45.8503L23.9678 50.6027Z" fill="#545454"/>
<path d="M71.8871 18.9438L68.4727 24.1296L72.2034 38.557L74.0278 38.044L77.44 28.6786L78.7956 24.9611L74.7863 17.4224L71.8871 18.9438Z" fill="#545454"/>
<path d="M79.7287 24.8969L79.7177 24.9279L79.8017 25.1579H81.9999L80.4718 23.8752L79.355 23.9416L79.6557 24.7554L79.7287 24.8969Z" fill="#545454"/>
<path d="M15.3008 49.1386L16.7625 55.1537L21.2739 48.4774L21.8201 47.6658V47.668L24.1642 44.2005L23.4411 42.9068L22.4526 41.1421L15.3008 49.1386Z" fill="#545454"/>
<path d="M25.1707 44.2426L28.3972 50.0145L32.0969 44.9348L35.8077 39.8419L22.5303 39.5278L22.6143 39.6782L25.1707 44.2426Z" fill="#545454"/>
</g>
<defs>
<clipPath id="clip0_13_1742">
<rect width="82" height="82" fill="white" transform="translate(0 0.810059)"/>
</clipPath>
</defs>
</svg>
