<svg width="68" height="69" viewBox="0 0 68 69" fill="none" xmlns="http://www.w3.org/2000/svg">
<path d="M12.784 58.6442H55.216C58.956 53.9522 61.2 48.0702 61.2 41.6102C61.2 26.6162 49.028 14.4102 34 14.4102C18.972 14.4102 6.80005 26.6162 6.80005 41.6102C6.80005 48.0702 9.04405 53.9522 12.784 58.6442ZM30.6 21.2102C30.6 19.3402 32.13 17.8102 34 17.8102C35.87 17.8102 37.4 19.3402 37.4 21.2102C37.4 23.1142 35.87 24.6102 34 24.6102C32.13 24.6102 30.6 23.1142 30.6 21.2102ZM13.6 28.0102C13.6 26.1402 15.13 24.6102 17 24.6102C18.87 24.6102 20.4 26.1402 20.4 28.0102C20.4 29.9142 18.87 31.4102 17 31.4102C15.13 31.4102 13.6 29.9142 13.6 28.0102ZM28.9681 39.5702C31.824 36.7482 51.102 27.6702 51.102 27.6702C51.102 27.6702 42.058 46.9822 39.236 49.8042C36.38 52.6602 31.824 52.6602 28.9681 49.8042C26.146 46.9822 26.146 42.3922 28.9681 39.5702ZM10.2 45.0102C10.2 43.1402 11.73 41.6102 13.6 41.6102C15.47 41.6102 17 43.1402 17 45.0102C17 46.9142 15.47 48.4102 13.6 48.4102C11.73 48.4102 10.2 46.9142 10.2 45.0102ZM30.6 45.0102C30.6 43.1402 32.13 41.6102 34 41.6102C35.87 41.6102 37.4 43.1402 37.4 45.0102C37.4 46.9142 35.87 48.4102 34 48.4102C32.13 48.4102 30.6 46.9142 30.6 45.0102ZM51 45.0102C51 43.1402 52.53 41.6102 54.4 41.6102C56.27 41.6102 57.8 43.1402 57.8 45.0102C57.8 46.9142 56.27 48.4102 54.4 48.4102C52.53 48.4102 51 46.9142 51 45.0102Z" fill="#545454"/>
</svg>
